# xmcd CD database file
#
# Track frame offsets:
#	150
#	34648
#	69317
#	109358
#	139121
#	169205
#	202209
#	241692
#	265101
#
# Disc length: 3821 seconds
#
# Revision: 0
# Processed by: cddbd v1.5.2PL0 Copyright (c) Steve Scherf et al.
# Submitted via: CDex 1.51
#
DISCID=7e0eeb09
DTITLE=Joe Haider Jazz Orchestra - Keep It Dark
DYEAR=2015
DGENRE=Jazz
TTITLE0=The Single Petal
TTITLE1=Josefa
TTITLE2=Keep It Dark
TTITLE3=Joe's Calypso
TTITLE4=Fears From The Past
TTITLE5=Kollektiv 13
TTITLE6=Maria Magdalena
TTITLE7=Onkel Erwin
TTITLE8=Landscape
EXTD=YEAR: 2015
EXTT0=
EXTT1=
EXTT2=
EXTT3=
EXTT4=
EXTT5=
EXTT6=
EXTT7=
EXTT8=
PLAYORDER=
